Genre:Fantasy | Thriller
Language:English  http://www.imdb.com/title/tt1415267/
Source:In_A_Blink_Of_An_Eye.

General
Complete name :In.A.Blink.Of.An.Eye.2009.DvDRip.Ac3.Feel-Free
Format : AVI
Format/Info : Audio Video Interleave
File size : 676 MiB
Duration : 1h 25mn
Overall bit rate : 1 105 Kbps
Video #0
Codec ID : XVID
Codec ID/Hint : XviD
Duration : 1h 25mn
Bit rate : 872 Kbps
Width : 720 pixels
Height : 384 pixels
Display aspect ratio : 1.875
Frame rate : 23.976 fps
Resolution : 24 bits
Colorimetry : 4:2:0
Scan type : Progressive
Bits/(Pixel*Frame) : 0.131
Stream size : 534 MiB (79%)
Writing library : XviD 1.2.1 (UTC 2008-12-04)
Audio #1
ID : 1
Format : AC-3
Format/Info : Audio Coding 3
Codec ID : 2000
Duration : 1h 25mn
Bit rate mode : Constant
Bit rate : 224 Kbps
Channel(s) : 2 channels
Channel positions : L R
Sampling rate : 48.0 KHz
Stream size : 137 MiB (20%)
Alignment : Split accross interleaves
Interleave, duration : 42 ms (1.00 video frame)
Interleave, preload duration : 500 ms

Plot:
One man's Revelation reveals he's been Left Behind. It was meant to be the perfect getaway, suddenly it became a horrific vacation for Detective David Ramsey (David A.R. White). While aboard a private yacht on the shimmering Sea of Cortez, David's wife and friends suddenly disappear. During the investigation, as David's police Captain (Eric Roberts) is helping him unravel the mystery, David is shocked to wake up from the terrible nightmare,or was it? Caught in the recurring turmoil of knowing tragedy is inevitable, David realizes he is powerless to stop it. As each day repeats, David discovers evidence of a worldwide event known in Biblical

TRAILER: http://www.imdb.com/video/screenplay/vi2400061209/

